<svg width="60" height="19" viewBox="0 0 60 19" fill="none" xmlns="http://www.w3.org/2000/svg">
<path d="M4.03906 15.1758H11.5039V18H0.523438V0.9375H4.03906V15.1758ZM26.7969 9.85547C26.7969 11.5352 26.5 13.0078 25.9062 14.2734C25.3125 15.5391 24.4609 16.5156 23.3516 17.2031C22.25 17.8906 20.9844 18.2344 19.5547 18.2344C18.1406 18.2344 16.8789 17.8945 15.7695 17.2148C14.6602 16.5352 13.8008 15.5664 13.1914 14.3086C12.582 13.043 12.2734 11.5898 12.2656 9.94922V9.10547C12.2656 7.42578 12.5664 5.94922 13.168 4.67578C13.7773 3.39453 14.6328 2.41406 15.7344 1.73438C16.8438 1.04687 18.1094 0.703125 19.5312 0.703125C20.9531 0.703125 22.2148 1.04687 23.3164 1.73438C24.4258 2.41406 25.2812 3.39453 25.8828 4.67578C26.4922 5.94922 26.7969 7.42188 26.7969 9.09375V9.85547ZM23.2344 9.08203C23.2344 7.29297 22.9141 5.93359 22.2734 5.00391C21.6328 4.07422 20.7188 3.60938 19.5312 3.60938C18.3516 3.60938 17.4414 4.07031 16.8008 4.99219C16.1602 5.90625 15.8359 7.25 15.8281 9.02344V9.85547C15.8281 11.5977 16.1484 12.9492 16.7891 13.9102C17.4297 14.8711 18.3516 15.3516 19.5547 15.3516C20.7344 15.3516 21.6406 14.8906 22.2734 13.9688C22.9062 13.0391 23.2266 11.6875 23.2344 9.91406V9.08203ZM42.8516 15.8438C42.2188 16.6016 41.3242 17.1914 40.168 17.6133C39.0117 18.0273 37.7305 18.2344 36.3242 18.2344C34.8477 18.2344 33.5508 17.9141 32.4336 17.2734C31.3242 16.625 30.4648 15.6875 29.8555 14.4609C29.2539 13.2344 28.9453 11.793 28.9297 10.1367V8.97656C28.9297 7.27344 29.2148 5.80078 29.7852 4.55859C30.3633 3.30859 31.1914 2.35547 32.2695 1.69922C33.3555 1.03516 34.625 0.703125 36.0781 0.703125C38.1016 0.703125 39.6836 1.1875 40.8242 2.15625C41.9648 3.11719 42.6406 4.51953 42.8516 6.36328H39.4297C39.2734 5.38672 38.9258 4.67188 38.3867 4.21875C37.8555 3.76562 37.1211 3.53906 36.1836 3.53906C34.9883 3.53906 34.0781 3.98828 33.4531 4.88672C32.8281 5.78516 32.5117 7.12109 32.5039 8.89453V9.98438C32.5039 11.7734 32.8438 13.125 33.5234 14.0391C34.2031 14.9531 35.1992 15.4102 36.5117 15.4102C37.832 15.4102 38.7734 15.1289 39.3359 14.5664V11.625H36.1367V9.03516H42.8516V15.8438ZM59.7266 9.85547C59.7266 11.5352 59.4297 13.0078 58.8359 14.2734C58.2422 15.5391 57.3906 16.5156 56.2812 17.2031C55.1797 17.8906 53.9141 18.2344 52.4844 18.2344C51.0703 18.2344 49.8086 17.8945 48.6992 17.2148C47.5898 16.5352 46.7305 15.5664 46.1211 14.3086C45.5117 13.043 45.2031 11.5898 45.1953 9.94922V9.10547C45.1953 7.42578 45.4961 5.94922 46.0977 4.67578C46.707 3.39453 47.5625 2.41406 48.6641 1.73438C49.7734 1.04687 51.0391 0.703125 52.4609 0.703125C53.8828 0.703125 55.1445 1.04687 56.2461 1.73438C57.3555 2.41406 58.2109 3.39453 58.8125 4.67578C59.4219 5.94922 59.7266 7.42188 59.7266 9.09375V9.85547ZM56.1641 9.08203C56.1641 7.29297 55.8438 5.93359 55.2031 5.00391C54.5625 4.07422 53.6484 3.60938 52.4609 3.60938C51.2812 3.60938 50.3711 4.07031 49.7305 4.99219C49.0898 5.90625 48.7656 7.25 48.7578 9.02344V9.85547C48.7578 11.5977 49.0781 12.9492 49.7188 13.9102C50.3594 14.8711 51.2812 15.3516 52.4844 15.3516C53.6641 15.3516 54.5703 14.8906 55.2031 13.9688C55.8359 13.0391 56.1562 11.6875 56.1641 9.91406V9.08203Z" fill="#9B9B9B"/>
</svg>
